<?xml version="1.0" encoding="UTF-8"?>
<svg xmlns="http://www.w3.org/2000/svg" xmlns:xlink="http://www.w3.org/1999/xlink" width="400px" height="400px" viewBox="0 0 400 400" version="1.1">
<g id="surface1">
<path style=" stroke:none;fill-rule:nonzero;fill:rgb(1.176471%,0.392157%,1.568628%);fill-opacity:1;" d="M 291.339844 347.644531 C 294.332031 348.121094 297.386719 347.390625 299.835938 345.589844 C 302.253906 343.839844 303.941406 341.136719 304.386719 338.128906 L 307.074219 320.265625 C 307.617188 316.667969 309.859375 313.613281 313.105469 311.976562 L 329.285156 303.894531 C 332.019531 302.507812 334.074219 300.140625 334.996094 297.257812 C 335.949219 294.347656 335.648438 291.230469 334.28125 288.527344 L 325.945312 272.410156 C 324.304688 269.261719 324.304688 265.425781 325.945312 262.242188 L 334.28125 246.144531 C 335.648438 243.441406 335.933594 240.320312 334.996094 237.410156 C 334.058594 234.515625 332.003906 232.160156 329.285156 230.777344 L 313.105469 222.695312 C 309.859375 221.054688 307.617188 218 307.074219 214.40625 L 304.386719 196.539062 C 303.941406 193.53125 302.253906 190.84375 299.835938 189.09375 C 297.386719 187.28125 294.332031 186.550781 291.339844 187.042969 L 273.445312 190.03125 C 269.894531 190.621094 266.300781 189.445312 263.753906 186.882812 L 251.042969 173.964844 C 248.894531 171.816406 246.015625 170.609375 242.960938 170.609375 C 239.957031 170.609375 237.011719 171.832031 234.878906 173.964844 L 222.167969 186.882812 C 219.640625 189.460938 216.027344 190.621094 212.480469 190.03125 L 194.613281 187.089844 C 191.625 186.597656 188.570312 187.328125 186.101562 189.140625 C 183.667969 190.890625 182 193.582031 181.554688 196.585938 L 178.878906 214.453125 C 178.324219 218.046875 176.097656 221.101562 172.851562 222.742188 L 156.65625 230.824219 C 153.96875 232.207031 151.882812 234.5625 150.960938 237.457031 C 150.023438 240.367188 150.292969 243.488281 151.660156 246.191406 L 159.996094 262.292969 C 161.652344 265.457031 161.652344 269.292969 159.996094 272.457031 L 151.660156 288.574219 C 150.292969 291.277344 150.023438 294.394531 150.960938 297.308594 C 151.898438 300.1875 153.953125 302.558594 156.65625 303.941406 L 172.851562 312.023438 C 176.097656 313.660156 178.324219 316.714844 178.878906 320.3125 L 181.554688 338.175781 C 182 341.167969 183.667969 343.875 186.101562 345.640625 C 188.554688 347.4375 191.609375 348.167969 194.613281 347.691406 L 212.480469 344.746094 C 216.027344 344.128906 219.640625 345.320312 222.167969 347.882812 L 234.878906 360.769531 C 237.027344 362.964844 239.941406 364.171875 242.960938 364.171875 C 246 364.171875 248.914062 362.964844 251.042969 360.769531 L 263.753906 347.882812 C 266.300781 345.320312 269.910156 344.128906 273.445312 344.746094 Z M 242.945312 334.597656 C 204.925781 334.597656 174.011719 303.6875 174.011719 265.679688 C 174.011719 227.671875 204.941406 196.730469 242.945312 196.730469 C 280.96875 196.730469 311.878906 227.691406 311.878906 265.679688 C 311.878906 303.671875 280.984375 334.597656 242.945312 334.597656 Z M 242.945312 334.597656 "/>
<path style=" stroke:none;fill-rule:nonzero;fill:rgb(1.176471%,0.392157%,1.568628%);fill-opacity:1;" d="M 242.960938 206.675781 C 210.492188 206.675781 184.050781 233.082031 184.050781 265.570312 C 184.050781 298.054688 210.507812 324.464844 242.960938 324.464844 C 275.464844 324.464844 301.875 298.054688 301.875 265.570312 C 301.875 233.082031 275.464844 206.675781 242.960938 206.675781 Z M 242.960938 206.675781 "/>
<path style=" stroke:none;fill-rule:nonzero;fill:rgb(1.176471%,0.392157%,1.568628%);fill-opacity:1;" d="M 345.621094 360.546875 L 313.566406 328.472656 L 311.945312 339.292969 C 311.179688 344.269531 308.410156 348.867188 304.324219 351.8125 C 300.265625 354.769531 295.191406 356.027344 290.132812 355.199219 L 272.21875 352.273438 C 270.738281 352.175781 269.847656 352.589844 269.195312 353.257812 L 266.140625 356.328125 L 308.015625 398.1875 C 309.636719 399.808594 311.976562 400.382812 314.140625 399.730469 C 316.304688 399.046875 317.894531 397.246094 318.339844 395.003906 L 322.109375 374.6875 L 342.488281 370.871094 C 344.714844 370.457031 346.515625 368.851562 347.167969 366.671875 C 347.835938 364.492188 347.230469 362.121094 345.621094 360.546875 Z M 345.621094 360.546875 "/>
<path style=" stroke:none;fill-rule:nonzero;fill:rgb(1.176471%,0.392157%,1.568628%);fill-opacity:1;" d="M 214.277344 352.195312 L 195.824219 355.199219 C 190.652344 355.996094 185.640625 354.753906 181.570312 351.765625 C 177.511719 348.835938 174.746094 344.253906 173.980469 339.242188 L 172.359375 328.472656 L 140.316406 360.546875 C 138.726562 362.136719 138.136719 364.492188 138.789062 366.65625 C 139.472656 368.835938 141.289062 370.410156 143.484375 370.855469 L 163.847656 374.65625 L 167.664062 395.003906 C 168.078125 397.246094 169.683594 399.046875 171.847656 399.730469 C 173.996094 400.382812 176.351562 399.808594 177.941406 398.203125 L 219.796875 356.328125 L 216.746094 353.242188 C 216.074219 352.558594 215.183594 352.195312 214.277344 352.195312 Z M 214.277344 352.195312 "/>
<path style=" stroke:none;fill-rule:nonzero;fill:rgb(1.176471%,0.392157%,1.568628%);fill-opacity:1;" d="M 261.226562 67.089844 L 111.125 67.089844 C 105.714844 67.089844 101.339844 71.464844 101.339844 76.871094 C 101.324219 82.3125 105.699219 86.671875 111.125 86.671875 L 261.226562 86.671875 C 266.617188 86.671875 271.011719 82.3125 271.011719 76.902344 C 271.011719 71.496094 266.601562 67.089844 261.226562 67.089844 Z M 261.226562 67.089844 "/>
<path style=" stroke:none;fill-rule:nonzero;fill:rgb(1.176471%,0.392157%,1.568628%);fill-opacity:1;" d="M 261.226562 117.265625 L 111.125 117.265625 C 105.714844 117.265625 101.339844 121.640625 101.339844 127.015625 C 101.324219 132.425781 105.699219 136.816406 111.125 136.816406 L 261.226562 136.816406 C 266.617188 136.816406 271.011719 132.457031 271.011719 127.035156 C 271.011719 121.640625 266.601562 117.265625 261.226562 117.265625 Z M 261.226562 117.265625 "/>
<path style=" stroke:none;fill-rule:nonzero;fill:rgb(1.176471%,0.392157%,1.568628%);fill-opacity:1;" d="M 157.054688 321.617188 L 149.65625 317.925781 C 147.761719 316.972656 146.042969 315.746094 144.453125 314.378906 L 81.261719 314.378906 C 76.9375 314.378906 73.421875 310.847656 73.421875 306.550781 L 73.421875 28.699219 C 73.421875 24.355469 76.9375 20.839844 81.261719 20.839844 L 291.546875 20.839844 C 295.859375 20.839844 299.390625 24.355469 299.390625 28.699219 L 299.390625 171.992188 C 302.890625 172.820312 306.230469 174.347656 309.160156 176.527344 C 314.886719 180.613281 318.847656 187.152344 319.914062 194.28125 L 320.230469 28.714844 C 320.265625 12.886719 307.378906 0 291.546875 0 L 81.261719 0 C 65.433594 0 52.546875 12.902344 52.546875 28.714844 L 52.546875 306.582031 C 52.546875 322.425781 65.449219 335.3125 81.261719 335.3125 L 143.386719 335.3125 Z M 157.054688 321.617188 "/>
</g>
</svg>
